<?xml version="1.0" encoding="iso-8859-1"?>
<!-- Generator: Adobe Illustrator 19.0.0, SVG Export Plug-In . SVG Version: 6.00 Build 0)  -->
<svg version="1.1" id="Layer_1" xmlns="http://www.w3.org/2000/svg" xmlns:xlink="http://www.w3.org/1999/xlink" x="0px" y="0px"
	 viewBox="0 0 512 512" style="enable-background:new 0 0 512 512;" xml:space="preserve">
<path style="fill:#878493;" d="M56,208c-4.418,0-8-3.582-8-8v-48c0-4.418,3.582-8,8-8s8,3.582,8,8v48C64,204.418,60.418,208,56,208z
	"/>
<path style="fill:#E1E0E4;" d="M87.892,150.685l-8-48C79.248,98.827,75.911,96,72,96H40c-3.911,0-7.248,2.827-7.892,6.685l-8,48
	c-0.386,2.32,0.268,4.692,1.787,6.486C27.416,158.966,29.648,160,32,160h48c2.352,0,4.584-1.034,6.104-2.829
	C87.624,155.377,88.277,153.005,87.892,150.685z"/>
<path style="fill:#D2D1D6;" d="M33.896,157.171c-1.52-1.794-2.173-4.166-1.787-6.486l8-48C40.752,98.827,44.089,96,48,96h-8
	c-3.911,0-7.248,2.827-7.892,6.685l-8,48c-0.386,2.32,0.268,4.692,1.787,6.486C27.416,158.966,29.648,160,32,160h8
	C37.648,160,35.416,158.966,33.896,157.171z"/>
<path style="fill:#878493;" d="M456,208c-4.418,0-8-3.582-8-8v-48c0-4.418,3.582-8,8-8s8,3.582,8,8v48
	C464,204.418,460.418,208,456,208z"/>
<path style="fill:#E1E0E4;" d="M487.892,150.685l-8-48C479.248,98.827,475.911,96,472,96h-32c-3.911,0-7.248,2.827-7.892,6.685
	l-8,48c-0.386,2.32,0.268,4.692,1.787,6.486c1.521,1.795,3.753,2.829,6.104,2.829h48c2.352,0,4.584-1.034,6.104-2.829
	C487.624,155.377,488.277,153.005,487.892,150.685z"/>
<g>
	<path style="fill:#D2D1D6;" d="M433.896,157.171c-1.52-1.794-2.173-4.166-1.787-6.486l8-48C440.752,98.827,444.089,96,448,96h-8
		c-3.911,0-7.248,2.827-7.892,6.685l-8,48c-0.386,2.32,0.268,4.692,1.787,6.486c1.521,1.795,3.753,2.829,6.104,2.829h8
		C437.648,160,435.416,158.966,433.896,157.171z"/>
	<path style="fill:#D2D1D6;" d="M504,200H8c-4.418,0-8,3.582-8,8v96c0,4.418,3.582,8,8,8h496c4.418,0,8-3.582,8-8v-96
		C512,203.582,508.418,200,504,200z"/>
</g>
<rect y="200" style="fill:#00B5B8;" width="512" height="48"/>
<g>
	<path style="fill:#019F9F;" d="M464,232h-16c-4.418,0-8-3.582-8-8s3.582-8,8-8h16c4.418,0,8,3.582,8,8S468.418,232,464,232z"/>
	<path style="fill:#019F9F;" d="M64,232H48c-4.418,0-8-3.582-8-8s3.582-8,8-8h16c4.418,0,8,3.582,8,8S68.418,232,64,232z"/>
</g>
<path style="fill:#C3C1C9;" d="M416,392H96c-4.418,0-8,3.582-8,8v24c0,4.418,3.582,8,8,8h320c4.418,0,8-3.582,8-8v-24
	C424,395.582,420.418,392,416,392z"/>
<path style="fill:#B4B2BB;" d="M424,400c0-4.418-3.582-8-8-8H96c-4.418,0-8,3.582-8,8v15.667h336V400z"/>
<path style="fill:#38C7C2;" d="M432,320H80c-4.418,0-8,3.582-8,8v72c0,4.418,3.582,8,8,8h352c4.418,0,8-3.582,8-8v-72
	C440,323.582,436.418,320,432,320z"/>
<path style="fill:#00B5B8;" d="M440,328c0-4.418-3.582-8-8-8H80c-4.418,0-8,3.582-8,8v56.333h368V328z"/>
<path style="fill:#FCDE76;" d="M384,80H128c-13.233,0-24,10.767-24,24v104c0,4.418,3.582,8,8,8h288c4.418,0,8-3.582,8-8V104
	C408,90.767,397.233,80,384,80z"/>
<path style="fill:#FCCF6F;" d="M120,200v-96c0-4.411,3.589-8,8-8h256c4.411,0,8,3.589,8,8v96H120z"/>
<path style="fill:#F0F0F1;" d="M455.544,325.338l-48-136C406.415,186.139,403.392,184,400,184H112c-3.392,0-6.415,2.139-7.544,5.338
	l-48,136C56.154,326.192,56,327.093,56,328v64c0,3.235,1.949,6.152,4.938,7.391c2.99,1.24,6.43,0.554,8.719-1.733L99.313,368
	h313.373l29.656,29.657c1.531,1.53,3.577,2.343,5.659,2.343c1.03,0,2.07-0.199,3.06-0.609c2.989-1.238,4.938-4.155,4.938-7.391v-64
	C456,327.093,455.846,326.192,455.544,325.338z"/>
<path style="fill:#E1E0E4;" d="M56,392c0,3.235,1.949,6.152,4.938,7.391c2.99,1.24,6.43,0.554,8.719-1.733L99.313,368h313.373
	l29.656,29.657c1.531,1.53,3.577,2.343,5.659,2.343c1.03,0,2.07-0.199,3.06-0.609c2.989-1.238,4.938-4.155,4.938-7.391v-64H56V392z"
	/>
<polygon style="fill:#68DEC8;" points="100.693,200 90.162,229.838 421.838,229.838 411.307,200 "/>
<path style="fill:#F0F0F1;" d="M232,104h-80c-13.233,0-24,10.767-24,24v48c0,13.233,10.767,24,24,24h80c13.233,0,24-10.767,24-24
	v-48C256,114.767,245.233,104,232,104z"/>
<path style="fill:#E1E0E4;" d="M248,184h-88c-8.836,0-16-7.164-16-16v-56c0-2.423,0.362-4.76,1.03-6.964
	C135.186,108.03,128,117.19,128,128v48c0,13.233,10.767,24,24,24h80c10.81,0,19.97-7.186,22.964-17.03
	C252.76,183.638,250.423,184,248,184z"/>
<path style="fill:#F0F0F1;" d="M360,104h-80c-13.233,0-24,10.767-24,24v48c0,13.233,10.767,24,24,24h80c13.233,0,24-10.767,24-24
	v-48C384,114.767,373.233,104,360,104z"/>
<path style="fill:#E1E0E4;" d="M376,184h-88c-8.836,0-16-7.164-16-16v-56c0-2.423,0.362-4.76,1.03-6.964
	C263.186,108.03,256,117.19,256,128v48c0,13.233,10.767,24,24,24h80c10.81,0,19.97-7.186,22.964-17.03
	C380.76,183.638,378.423,184,376,184z"/>
<path style="fill:#FCDE76;" d="M225.941,163.314l-22.628-22.63c-6.237-6.233-16.387-6.237-22.628,0.002l-22.627,22.627
	c-6.238,6.238-6.238,16.39,0,22.628l22.628,22.629c3.119,3.117,7.216,4.677,11.313,4.677s8.194-1.56,11.314-4.679l22.627-22.627
	C232.18,179.703,232.18,169.552,225.941,163.314z"/>
<path style="fill:#FCCF6F;" d="M158.059,185.941l22.628,22.629c3.119,3.117,7.216,4.677,11.313,4.677s8.194-1.56,11.314-4.679
	l-45.256-45.255C151.82,169.552,151.82,179.703,158.059,185.941z"/>
<path style="fill:#FCDE76;" d="M353.941,163.314l-22.628-22.63c-6.237-6.233-16.387-6.237-22.628,0.002l-22.627,22.627
	c-6.238,6.238-6.238,16.39,0,22.628l22.628,22.629c3.119,3.117,7.216,4.677,11.313,4.677c4.097,0,8.194-1.56,11.314-4.679
	l22.627-22.627C360.18,179.703,360.18,169.552,353.941,163.314z"/>
<path style="fill:#FCCF6F;" d="M286.059,185.941l22.628,22.629c3.119,3.117,7.216,4.677,11.313,4.677
	c4.097,0,8.194-1.56,11.314-4.679l-45.256-45.255C279.82,169.552,279.82,179.703,286.059,185.941z"/>
<g>
</g>
<g>
</g>
<g>
</g>
<g>
</g>
<g>
</g>
<g>
</g>
<g>
</g>
<g>
</g>
<g>
</g>
<g>
</g>
<g>
</g>
<g>
</g>
<g>
</g>
<g>
</g>
<g>
</g>
</svg>
